<svg viewBox="0 0 1000 750" version="1.1" xmlns="http://www.w3.org/2000/svg" desc="Created with imagetracer.js version 1.2.6" ><path fill="rgb(0,1,0)" stroke="rgb(0,1,0)" stroke-width="1" opacity="0.9333333333333333" d="M 274 36 L 288.5 36 Q 289.5 36 289 40.5 L 290 42.5 L 289 45.5 Q 288.3 49.3 290.5 50 L 302 50 L 302 67.5 L 304.5 69 L 306.5 68 L 309.5 69 L 312.5 68 L 315 69 L 315 73.5 L 314 74.5 L 314 82.5 L 315.5 85 L 316.5 84 L 326 84 L 326 100 L 331.5 100 Q 332.3 98.3 335.5 99 L 337 100.5 L 337 112.5 L 338.5 114 L 348 113 L 348 130 L 361 130 L 361 147 L 373 147 L 373 164 L 386 164 L 386 178.5 L 387.5 180 L 584 180 L 584 164 L 597 164 L 597 147 L 609 147 L 609 130 L 622 130 L 622 114.5 Q 623.3 111.8 628.5 113 Q 629.3 114.8 632.5 114 L 634 112.5 L 634 100.5 L 635.5 99 L 644.5 100 Q 647.3 98.7 645 97.5 L 645 85.5 L 646.5 84 L 657 84 L 657 68 L 665.5 68 L 667.5 69 L 669 67.5 L 669 50 L 682 50 L 682 36 L 697 36 L 697 50 L 710 50 L 710 65.5 L 709 67.5 L 710.5 69 L 722 69 L 722 88 L 735 88 L 735 107 L 748 107 L 748 124.5 Q 749 127 753.5 126 Q 754.8 123.7 759.5 125 L 761 126.5 L 761 145 L 773 145 L 773 164 L 786 164 L 786 182 L 796.5 182 L 797 182.5 L 797 457.5 Q 798.3 460.3 799.5 458 L 832.5 458 L 833 457.5 L 833 450.5 L 835.5 449 L 836.5 450 L 863.5 450 L 864.5 449 L 872.5 449 Q 874.8 449.8 874 453.5 Q 872 454.5 874 455.5 Q 874.5 460 873.5 460 L 834.5 460 L 834 460.5 L 834 468.5 L 833.5 469 L 798.5 469 L 797 470.5 L 797 520 L 841.5 520 L 842 520.5 L 842 526.5 L 842.5 527 L 872.5 527 L 874 528.5 L 874 536.5 L 872.5 538 L 841 538 L 841 531.5 L 840.5 531 L 797 531 L 797 581.5 L 797.5 582 L 809 582 L 809 589.5 L 810.5 591 L 833 591 L 833 598.5 L 834.5 600 L 835.5 599 L 845 599 L 845 606.5 L 846.5 608 L 859.5 608 Q 860.4 608.1 860 604.5 L 859 603.5 L 859 592 L 872 592 L 872 564.5 L 872.5 564 L 879.5 564 L 881.5 563 L 884 564 L 884 477.5 L 885.5 476 L 893.5 476 L 894.5 477 L 896 475.5 L 896 461 L 906.5 461 L 908 459.5 L 908 451.5 Q 906 450.4 907 447 L 919.5 447 L 921 445.5 Q 922 438 920 435 L 955.5 435 Q 956.3 434.8 956 437.5 L 955 438.5 L 955 446.5 L 957.5 448 L 958.5 447 L 966.5 447 Q 969.5 448.5 968 454.5 L 967 455.5 L 967 465.5 L 968 466.5 L 968 484 L 953 484 L 953 493.5 Q 955 494.6 954 498 L 941.5 498 L 941 498.5 L 941 591.5 L 940.5 592 L 930.5 592 L 929 593.5 L 929 616 L 919 616 L 919 630.5 L 917.5 632 L 907 632 L 907 646 L 894 646 L 894 660 L 879 660 L 879 674 L 859 674 L 859 686.5 L 858.5 687 L 827.5 687 Q 826.6 686.9 827 690.5 L 828 691.5 L 828 698.5 L 826.5 700 L 176 700 Q 177 696.2 174.5 695 L 171 695 L 171 685.5 L 172 684.5 L 172 676.5 L 171 675.5 L 171 613.5 L 172 612.5 L 172 592 L 161 592 L 161 599.5 L 159.5 601 L 137 601 L 137 609.5 L 135.5 611 L 112 611 L 112 619 L 99 619 L 99 624.5 Q 98.3 626.8 94.5 626 Q 93.8 624.3 90.5 625 L 87.5 626 L 86 624.5 L 86 616 L 98 616 L 98 609.5 L 98.5 609 L 111 609 L 111 601.5 L 113.5 600 L 114.5 601 L 129.5 601 L 130.5 600 L 136 600 L 136 591 L 159.5 591 L 160 590.5 L 160 582 L 170.5 582 Q 173 581 172 576.5 L 171 575.5 L 171 535.5 Q 173 534.4 172 531 L 127.5 531 L 127 531.5 L 127 537.5 L 126.5 538 L 84.5 538 L 84 538.5 Q 84.6 543.9 83.5 544 L 60.5 544 L 59 542.5 L 59 533 L 82.5 533 L 84 531.5 L 83 528.5 L 84.5 527 L 127 527 L 127 520.5 L 127.5 520 L 171.5 520 L 172 519.5 L 172 512.5 L 171 511.5 L 171 489.5 Q 173 488.5 171 487.5 L 171 475.5 Q 173 474.5 172 470.5 L 170.5 469 L 134.5 469 L 133 467.5 L 133 460.5 L 132.5 460 L 95.5 460 Q 94.3 462.3 93 459.5 L 93 452.5 L 92.5 452 L 59 452 L 59 442 L 93.5 442 Q 94.4 441.9 94 445.5 Q 92 446.5 94 447.5 L 95.5 450 L 96.5 449 L 109.5 449 L 110.5 450 L 130.5 450 Q 131.4 448.2 134 449 L 134 457.5 L 134.5 458 L 169.5 458 Q 170.8 460.3 172 457.5 L 172 446.5 L 171 445.5 L 171 439.5 L 172 437.5 L 171 435.5 L 172 434.5 L 172 419.5 L 171 418.5 L 171 412.5 L 172 411.5 L 172 398.5 L 171 397.5 L 171 380.5 L 172 379.5 L 172 361.5 L 171 360.5 L 171 346.5 L 172 345.5 L 172 193.5 L 171 192.5 L 171 183.5 L 172.5 182 L 184 182 L 184 164 L 197 164 L 197 145 L 210 145 L 210 126 L 221.5 126 L 223 124.5 L 223 110.5 L 222 108.5 L 223.5 107 L 236 107 L 236 88 L 249 88 L 249 74.5 L 248 73.5 L 248 69 L 261 69 L 261 50 L 274 50 L 274 36 Z M 423 194 L 422 195 L 187 195 L 187 467 L 188 467 L 229 467 L 229 475 L 231 476 L 258 476 L 258 488 L 230 488 L 229 488 L 229 479 L 187 479 L 187 518 L 206 518 Q 206 518 206 514 L 207 513 L 257 513 L 257 523 L 257 523 L 211 523 L 211 528 L 210 529 L 187 529 L 187 573 L 194 573 L 195 572 L 207 572 L 208 573 L 210 572 L 210 562 L 233 562 L 233 550 L 258 550 L 258 563 Q 257 565 256 563 L 239 563 L 238 564 L 236 563 L 234 565 L 234 574 L 212 574 L 210 576 L 210 584 L 187 584 L 187 683 L 188 683 L 781 683 L 781 585 L 781 584 L 758 584 L 758 576 L 757 574 L 735 574 L 735 565 L 734 563 L 714 563 Q 712 565 711 563 L 711 552 L 713 550 L 735 550 L 736 552 L 736 562 L 759 562 L 759 572 L 761 573 Q 764 574 765 572 L 781 572 L 781 529 L 758 529 L 758 525 L 757 523 L 713 523 L 712 523 L 712 513 L 762 513 L 762 514 L 762 518 L 781 518 L 781 479 L 741 479 L 739 481 L 740 488 L 714 488 L 713 489 L 711 488 L 711 477 Q 712 474 714 476 L 739 476 L 739 468 L 740 467 L 781 467 L 781 467 L 781 194 L 762 194 L 761 195 L 424 195 L 423 194 Z M 797 592 L 797 633 L 828 633 L 828 633 L 828 621 L 845 621 L 845 609 L 833 609 L 833 602 L 833 601 L 809 601 L 809 594 L 808 592 L 797 592 Z " /><path fill="rgb(0,1,0)" stroke="rgb(0,1,0)" stroke-width="1" opacity="0.9333333333333333" d="M 235 363 L 427.5 363 L 428 363.5 L 428 396 L 420 396 L 420 414 L 410 414 L 410 426 L 399 426 L 399 435.5 L 397.5 437 L 384 437 L 384 446.5 L 382.5 448 L 363 448 L 363 456.5 L 362.5 457 L 298 457 L 298 450.5 L 299 449.5 L 297.5 448 L 279 448 L 279 438 L 265 438 L 265 426 L 254 426 L 254 414 L 244 414 L 244 395 L 235.5 395 L 235 394.5 L 235 363 Z M 248 375 L 248 394 L 258 394 L 258 409 L 257 412 L 259 413 L 268 413 L 269 415 Q 270 418 268 420 L 268 423 L 269 425 L 276 425 L 277 424 Q 280 423 281 426 L 280 429 Q 279 434 282 435 L 300 435 L 300 444 L 301 444 L 360 444 Q 361 446 362 444 L 362 435 L 383 435 L 383 424 L 396 424 L 396 413 L 407 413 L 407 395 L 408 394 L 417 394 L 417 378 Q 419 376 417 375 L 371 375 L 371 396 L 363 396 L 361 398 L 362 401 Q 363 406 361 408 L 352 408 L 352 416 L 352 416 L 335 416 Q 333 418 332 416 L 332 408 L 323 408 L 323 397 L 316 397 L 314 396 L 314 376 L 314 375 L 248 375 Z " /><path fill="rgb(0,1,0)" stroke="rgb(0,1,0)" stroke-width="1" opacity="0.9333333333333333" d="M 540 363 L 734.5 363 L 735 363.5 L 735 395 L 726.5 395 L 725 396.5 L 725 411.5 L 726 412.5 L 724.5 414 L 716.5 414 L 715 415.5 L 715 422.5 L 716 423.5 L 715 426 L 704 426 L 704 438 L 691 438 L 691 448 L 671 448 L 671 456.5 L 670.5 457 L 608 457 L 608 448 L 586 448 L 586 437 L 570 437 L 570 426 L 559 426 L 559 414 L 549 414 L 549 396 L 540.5 396 L 540 395.5 L 540 363 Z M 552 375 L 552 394 L 562 394 L 562 412 L 564 413 L 574 413 L 574 424 L 587 424 L 587 435 L 608 435 L 608 444 L 669 444 L 669 444 L 669 435 L 689 435 L 689 424 L 701 424 L 701 413 L 712 413 L 712 393 L 715 394 L 722 394 L 722 376 L 722 375 L 658 375 Q 655 376 657 378 L 657 396 L 656 397 L 648 397 L 648 408 L 639 408 L 639 416 L 618 416 L 619 414 L 619 408 L 609 408 L 609 396 L 599 396 L 599 375 L 552 375 Z " /><path fill="rgb(0,1,0)" stroke="rgb(0,1,0)" stroke-width="1" opacity="0.9333333333333333" d="M 457 439 L 510.5 439 L 511 439.5 L 511 451.5 L 509.5 453 L 504 453 L 504 460 L 497.5 460 L 496 461.5 L 496 468 L 489.5 468 L 488 469.5 Q 486.8 474.2 489 475.5 L 489 504 L 498 504 L 498 513 L 508 513 L 508 523 L 517.5 523 L 519 524.5 L 519 535 L 507 535 L 507 527 L 498 527 L 498 519.5 L 496.5 518 L 488 518 L 488 512 L 482.5 512 Q 481.3 509.8 480 512.5 L 480 518 L 471.5 518 L 470 519.5 L 470 526 L 461.5 526 L 460 527.5 Q 458.8 532.3 461 533.5 L 459.5 535 L 449 535 L 449 523 L 458.5 523 Q 461.3 521.8 460 516.5 L 459 514.5 L 460.5 513 L 468.5 513 L 470 511.5 L 469 505.5 L 470.5 504 L 477.5 504 L 479 502.5 Q 479.8 499.3 478 498.5 L 478 473.5 Q 479.8 472.8 479 469.5 L 477.5 468 L 471 468 L 471 460 L 466.5 460 Q 465.3 462.3 464 459.5 L 464 453 L 457 453 L 457 439 Z " /><path fill="rgb(0,0,0)" stroke="rgb(0,0,0)" stroke-width="1" opacity="0" d="M 0 0 L 1000 0 L 1000 750 L 0 750 L 0 0 Z M 274 36 L 274 50 L 261 50 L 261 69 L 248 69 L 248 74 L 249 75 L 249 88 L 236 88 L 236 107 L 224 107 L 222 109 L 223 111 L 223 125 L 222 126 L 210 126 L 210 145 L 197 145 L 197 164 L 184 164 L 184 182 L 173 182 L 171 184 L 171 193 L 172 194 L 172 346 L 171 347 L 171 361 L 172 362 L 172 380 L 171 381 L 171 398 L 172 399 L 172 412 L 171 413 L 171 419 L 172 420 L 172 435 L 171 436 L 172 438 L 171 440 L 171 446 L 172 447 L 172 458 Q 171 460 170 458 L 135 458 L 134 458 L 134 449 Q 131 448 131 450 L 111 450 L 110 449 L 97 449 L 96 450 L 94 448 Q 92 447 94 446 Q 94 442 94 442 L 59 442 L 59 452 L 93 452 L 93 453 L 93 460 Q 94 462 96 460 L 133 460 L 133 461 L 133 468 L 135 469 L 171 469 L 172 471 Q 173 474 171 476 L 171 488 Q 173 489 171 490 L 171 512 L 172 513 L 172 520 L 172 520 L 128 520 L 127 521 L 127 527 L 85 527 L 83 529 L 84 532 L 83 533 L 59 533 L 59 543 L 61 544 L 84 544 Q 85 544 84 539 L 85 538 L 127 538 L 127 538 L 127 532 L 128 531 L 172 531 Q 173 534 171 536 L 171 576 L 172 577 Q 173 581 171 582 L 160 582 L 160 591 L 160 591 L 136 591 L 136 600 L 131 600 L 130 601 L 115 601 L 114 600 L 111 602 L 111 609 L 99 609 L 98 610 L 98 616 L 86 616 L 86 625 L 88 626 L 91 625 Q 94 624 95 626 Q 98 627 99 625 L 99 619 L 112 619 L 112 611 L 136 611 L 137 610 L 137 601 L 160 601 L 161 600 L 161 592 L 172 592 L 172 613 L 171 614 L 171 676 L 172 677 L 172 685 L 171 686 L 171 695 L 175 695 Q 177 696 176 700 L 827 700 L 828 699 L 828 692 L 827 691 Q 827 687 828 687 L 859 687 L 859 687 L 859 674 L 879 674 L 879 660 L 894 660 L 894 646 L 907 646 L 907 632 L 918 632 L 919 631 L 919 616 L 929 616 L 929 594 L 931 592 L 941 592 L 941 592 L 941 499 L 942 498 L 954 498 Q 955 495 953 494 L 953 484 L 968 484 L 968 467 L 967 466 L 967 456 L 968 455 Q 969 448 967 447 L 959 447 L 958 448 L 955 447 L 955 439 L 956 438 Q 956 435 956 435 L 920 435 Q 922 438 921 446 L 920 447 L 907 447 Q 906 450 908 452 L 908 460 L 907 461 L 896 461 L 896 476 L 895 477 L 894 476 L 886 476 L 884 478 L 884 564 L 882 563 L 880 564 L 873 564 L 872 565 L 872 592 L 859 592 L 859 604 L 860 605 Q 860 608 860 608 L 847 608 L 845 607 L 845 599 L 836 599 L 835 600 L 833 599 L 833 591 L 811 591 L 809 590 L 809 582 L 798 582 L 797 582 L 797 531 L 841 531 L 841 532 L 841 538 L 873 538 L 874 537 L 874 529 L 873 527 L 843 527 L 842 527 L 842 521 L 842 520 L 797 520 L 797 471 L 799 469 L 834 469 L 834 469 L 834 461 L 835 460 L 874 460 Q 874 460 874 456 Q 872 455 874 454 Q 875 450 873 449 L 865 449 L 864 450 L 837 450 L 836 449 L 833 451 L 833 458 L 833 458 L 800 458 Q 798 460 797 458 L 797 183 L 797 182 L 786 182 L 786 164 L 773 164 L 773 145 L 761 145 L 761 127 L 760 125 Q 755 124 754 126 Q 749 127 748 125 L 748 107 L 735 107 L 735 88 L 722 88 L 722 69 L 711 69 L 709 68 L 710 66 L 710 50 L 697 50 L 697 36 L 682 36 L 682 50 L 669 50 L 669 68 L 668 69 L 666 68 L 657 68 L 657 84 L 647 84 L 645 86 L 645 98 Q 647 99 645 100 L 636 99 L 634 101 L 634 113 L 633 114 Q 629 115 629 113 Q 623 112 622 115 L 622 130 L 609 130 L 609 147 L 597 147 L 597 164 L 584 164 L 584 180 L 388 180 L 386 179 L 386 164 L 373 164 L 373 147 L 361 147 L 361 130 L 348 130 L 348 113 L 339 114 L 337 113 L 337 101 L 336 99 Q 332 98 332 100 L 326 100 L 326 84 L 317 84 L 316 85 L 314 83 L 314 75 L 315 74 L 315 69 L 313 68 L 310 69 L 307 68 L 305 69 L 302 68 L 302 50 L 291 50 Q 288 49 289 46 L 290 43 L 289 41 Q 289 36 289 36 L 274 36 Z " /><path fill="rgb(0,0,0)" stroke="rgb(0,0,0)" stroke-width="1" opacity="0" d="M 422.5 194 L 423.5 195 L 760.5 195 L 761.5 194 L 781 194 L 781 466.5 L 780.5 467 L 739.5 467 L 739 467.5 L 739 476 L 713.5 476 Q 712.3 473.8 711 476.5 L 711 487.5 L 712.5 489 L 713.5 488 L 740 488 L 739 480.5 L 740.5 479 L 781 479 L 781 518 L 762 518 L 762 513.5 L 761.5 513 L 712 513 L 712 522.5 L 712.5 523 L 756.5 523 L 758 524.5 L 758 529 L 781 529 L 781 572 L 764.5 572 Q 763.8 573.8 760.5 573 L 759 571.5 L 759 562 L 736 562 L 736 551.5 L 734.5 550 L 712.5 550 L 711 551.5 L 711 562.5 Q 712.3 565.3 713.5 563 L 733.5 563 L 735 564.5 L 735 574 L 756.5 574 L 758 575.5 L 758 584 L 780.5 584 L 781 584.5 L 781 683 L 187.5 683 L 187 682.5 L 187 584 L 210 584 L 210 575.5 L 211.5 574 L 234 574 L 234 564.5 L 235.5 563 L 237.5 564 L 238.5 563 L 255.5 563 Q 256.8 565.3 258 562.5 L 258 550 L 233 550 L 233 562 L 210 562 L 210 571.5 L 207.5 573 L 206.5 572 L 194.5 572 L 193.5 573 L 187 573 L 187 529 L 209.5 529 L 211 527.5 L 211 523 L 256.5 523 L 257 522.5 L 257 513 L 206.5 513 L 206 513.5 Q 206.5 518 205.5 518 L 187 518 L 187 479 L 229 479 L 229 487.5 L 229.5 488 L 258 488 L 258 476 L 230.5 476 L 229 474.5 L 229 467 L 187.5 467 L 187 466.5 L 187 195 L 421.5 195 L 422.5 194 Z M 235 363 L 235 395 L 236 395 L 244 395 L 244 414 L 254 414 L 254 426 L 265 426 L 265 438 L 279 438 L 279 448 L 298 448 L 299 450 L 298 451 L 298 457 L 363 457 L 363 457 L 363 448 L 383 448 L 384 447 L 384 437 L 398 437 L 399 436 L 399 426 L 410 426 L 410 414 L 420 414 L 420 396 L 428 396 L 428 364 L 428 363 L 235 363 Z M 540 363 L 540 396 L 541 396 L 549 396 L 549 414 L 559 414 L 559 426 L 570 426 L 570 437 L 586 437 L 586 448 L 608 448 L 608 457 L 671 457 L 671 457 L 671 448 L 691 448 L 691 438 L 704 438 L 704 426 L 715 426 L 716 424 L 715 423 L 715 416 L 717 414 L 725 414 L 726 413 L 725 412 L 725 397 L 727 395 L 735 395 L 735 364 L 735 363 L 540 363 Z M 457 439 L 457 453 L 464 453 L 464 460 Q 465 462 467 460 L 471 460 L 471 468 L 478 468 L 479 470 Q 480 473 478 474 L 478 499 Q 480 499 479 503 L 478 504 L 471 504 L 469 506 L 470 512 L 469 513 L 461 513 L 459 515 L 460 517 Q 461 522 459 523 L 449 523 L 449 535 L 460 535 L 461 534 Q 459 532 460 528 L 462 526 L 470 526 L 470 520 L 472 518 L 480 518 L 480 513 Q 481 510 483 512 L 488 512 L 488 518 L 497 518 L 498 520 L 498 527 L 507 527 L 507 535 L 519 535 L 519 525 L 518 523 L 508 523 L 508 513 L 498 513 L 498 504 L 489 504 L 489 476 Q 487 474 488 470 L 490 468 L 496 468 L 496 462 L 498 460 L 504 460 L 504 453 L 510 453 L 511 452 L 511 440 L 511 439 L 457 439 Z " /><path fill="rgb(0,0,0)" stroke="rgb(0,0,0)" stroke-width="1" opacity="0" d="M 248 375 L 313.5 375 L 314 375.5 L 314 395.5 L 315.5 397 L 323 397 L 323 408 L 332 408 L 332 415.5 Q 333.2 418.3 334.5 416 L 351.5 416 L 352 415.5 L 352 408 L 360.5 408 Q 363.5 406.5 362 400.5 L 361 397.5 L 362.5 396 L 371 396 L 371 375 L 416.5 375 Q 419.3 376.2 417 377.5 L 417 394 L 407.5 394 L 407 394.5 L 407 413 L 396 413 L 396 424 L 383 424 L 383 435 L 362 435 L 362 443.5 Q 360.8 446.3 359.5 444 L 300.5 444 L 300 443.5 L 300 435 L 281.5 435 Q 278.8 433.8 280 428.5 L 281 425.5 Q 280.3 423.3 276.5 424 L 275.5 425 L 269 425 L 268 422.5 L 268 419.5 Q 270 418.5 269 414.5 L 267.5 413 L 258.5 413 L 257 411.5 L 258 408.5 L 258 394 L 248 394 L 248 375 Z " /><path fill="rgb(0,0,0)" stroke="rgb(0,0,0)" stroke-width="1" opacity="0" d="M 552 375 L 599 375 L 599 396 L 609 396 L 609 408 L 619 408 L 619 413.5 L 618 416 L 639 416 L 639 408 L 648 408 L 648 397 L 655.5 397 L 657 395.5 L 657 377.5 Q 654.8 376.2 657.5 375 L 721.5 375 L 722 375.5 L 722 394 L 714.5 394 L 712 393 L 712 413 L 701 413 L 701 424 L 689 424 L 689 435 L 669 435 L 669 443.5 L 668.5 444 L 608 444 L 608 435 L 587 435 L 587 424 L 574 424 L 574 413 L 563.5 413 L 562 411.5 L 562 394 L 552 394 L 552 375 Z " /><path fill="rgb(0,0,0)" stroke="rgb(0,0,0)" stroke-width="1" opacity="0" d="M 797 592 L 807.5 592 L 809 593.5 L 809 601 L 832.5 601 L 833 601.5 L 833 609 L 845 609 L 845 621 L 828 621 L 828 632.5 L 827.5 633 L 797 633 L 797 592 Z " /></svg>